inDegrees=yes
name=ik_S53_A12_T01
DataType=double
version=3
OpenSimVersion=4.3-2021-08-27-4bc7ad9
endheader
time	pelvis_tilt	pelvis_list	pelvis_rotation	pelvis_tx	pelvis_ty	pelvis_tz	hip_flexion_r	hip_adduction_r	hip_rotation_r	knee_angle_r	knee_angle_r_beta	ankle_angle_r	subtalar_angle_r	mtp_angle_r	hip_flexion_l	hip_adduction_l	hip_rotation_l	knee_angle_l	knee_angle_l_beta	ankle_angle_l	subtalar_angle_l	mtp_angle_l	lumbar_extension	lumbar_bending	lumbar_rotation	arm_flex_r	arm_add_r	arm_rot_r	elbow_flex_r	pro_sup_r	wrist_flex_r	wrist_dev_r	arm_flex_l	arm_add_l	arm_rot_l	elbow_flex_l	pro_sup_l	wrist_flex_l	wrist_dev_l
0	0	0	0	0	0.9399999999999999	0	0	0	0	0	0	0	0	0	0	0	0	0	0	0	0	0	0	0	0	0	0	0	0	89.99999999963507	0	0	0	0	0	0	89.99999999869995	0	0
0.02	-0.3476233185924197	0.4253030399226829	35.8234865329576	0	0.9399999999999999	0	1.167297705227998	-0.5548976565401099	-0.3913554322416984	1.832490214936525	0.03198298776122092	0	0	0	1.167297705227998	-0.5548976565401099	-0.3913554322416984	1.832490214936525	0.03198298776122092	0	0	0	0.6598611753619245	0.6433654902005015	16.60475604995639	7.49958726112716	-4.622829620661386	-10.44679765419406	3.869435035228135	126.0832773366759	0	0	6.991224464704289	-1.847867658036335	-13.63007399675472	5.35305067413399	114.0721010281453	0	0
0.04	-0.3685572011420785	0.4690913538596647	36.05058795583948	0	0.9399999999999999	0	3.25677086735171	-1.540128826492588	-1.150395260040612	4.075041014293084	0.07112288285322362	0	0	0	3.25677086735171	-1.540128826492588	-1.150395260040612	4.075041014293084	0.07112288285322362	0	0	0	0.6743899696573042	0.6255529334779421	16.29459579743439	7.491579336247417	-4.640688807795991	-10.38252759943169	3.918853655198896	126.0808212104203	0	0	6.96656502493699	-1.826890034304155	-13.66681820365701	5.414010493927435	114.037591618115	0	0
0.06	-0.3666022162145363	0.4819144275224708	36.27157443221081	0	0.9399999999999999	0	4.94157602476877	-2.279321049637873	-1.74550794037739	5.692148194473128	0.09934672750500657	0	0	0	4.94157602476877	-2.279321049637873	-1.74550794037739	5.692148194473128	0.09934672750500657	0	0	0	0.6737120180861044	0.613935528835878	16.05586639196337	7.490831662241018	-4.641954378600221	-10.36273305256684	3.908826478947756	126.0582947789276	0	0	6.974820666698225	-1.834966399948697	-13.63983002511256	5.431709606612928	114.0019933439559	0	0
0.08	-0.3696710163885548	0.4946629324159551	36.43599414857658	0	0.9399999999999999	0	6.24447874933855	-2.824746346434223	-2.194096723056968	6.940921943758157	0.1211419410425045	0	0	0	6.24447874933855	-2.824746346434223	-2.194096723056968	6.940921943758157	0.1211419410425045	0	0	0	0.6722966596794973	0.6070658012303591	15.85698355803858	7.524322489395541	-4.632316406205912	-10.41067021701909	3.887929314507197	126.1235698123309	0	0	6.9940619128506	-1.828227955126571	-13.65013878808684	5.421372614821184	114.0334776529698	0	0
0.1	-0.3657345015257445	0.4995038989605211	36.46637799533735	0	0.9399999999999999	0	6.591267153022828	-2.961381067045134	-2.311345508407654	7.251449659405385	0.1265616720992453	0	0	0	6.591267153022828	-2.961381067045134	-2.311345508407654	7.251449659405385	0.1265616720992453	0	0	0	0.6744270608990622	0.6078103725878597	15.79284119012801	7.523779452032353	-4.623071818293368	-10.4675033759857	3.89736094489	126.1953383794002	0	0	6.982041765690878	-1.815691505490523	-13.65098879715036	5.431562126704886	114.0595010065815	0	0
0.12	-0.3742330492162351	0.5118759781621365	36.61602923558051	0	0.9399999999999999	0	7.600945230536736	-3.36805261683361	-2.649889300137548	8.241652733355389	0.1438439760030418	0	0	0	7.600945230536736	-3.36805261683361	-2.649889300137548	8.241652733355389	0.1438439760030418	0	0	0	0.6672753189095341	0.6079416125930274	15.62769382176862	7.520888818141273	-4.629847786769849	-10.48452302645167	3.916866107922982	126.1786486831541	0	0	7.012309384188274	-1.809856055168851	-13.62945888833467	5.415660562313996	114.017367420484	0	0
0.14	-0.370716130748981	0.5205535888702052	36.6587060588181	0	0.9399999999999999	0	7.972704223944222	-3.510513898278401	-2.772579805410818	8.5956229007543	0.1500219208779883	0	0	0	7.972704223944222	-3.510513898278401	-2.772579805410818	8.5956229007543	0.1500219208779883	0	0	0	0.670542885225989	0.6131679817555049	15.57260069260614	7.507256627630397	-4.641879324926477	-10.4748497927005	3.91972469471262	126.1630665579289	0	0	6.994493994373629	-1.815895060111356	-13.63530609730196	5.443463138303394	114.0189011747959	0	0
0.16	-0.3703069483671921	0.5240068528267369	36.6916567743144	0	0.9399999999999999	0	8.236576364722147	-3.606351776055282	-2.858718487741406	8.83353290396899	0.154174233757515	0	0	0	8.236576364722147	-3.606351776055282	-2.858718487741406	8.83353290396899	0.154174233757515	0	0	0	0.6688493898400736	0.6170459586055714	15.51242414898845	7.488942360345495	-4.64342838679576	-10.48244605478643	3.892918367202109	126.1167367542121	0	0	6.973857872021073	-1.788914959426384	-13.65503134485722	5.421512224655168	113.9512794276521	0	0
0.18	-0.3675078362691138	0.518485310938203	36.71281844695269	0	0.9399999999999999	0	8.430980992565663	-3.676681567024615	-2.922030518828093	9.00877173314508	0.1572327283039776	0	0	0	8.430980992565663	-3.676681567024615	-2.922030518828093	9.00877173314508	0.1572327283039776	0	0	0	0.6650642093680362	0.6116516120287635	15.4706743657136	7.481975955266555	-4.615757349883431	-10.53727195776208	3.836107493916889	126.2165947959208	0	0	6.979128378545207	-1.804872682350154	-13.69947065296317	5.332023556589721	114.0291349111346	0	0
0.2	-0.3738943932671702	0.5211180907595483	36.73798124951588	0	0.9399999999999999	0	8.588595470384002	-3.737254569000847	-2.973801481695066	9.161364328856228	0.1598959715133017	0	0	0	8.588595470384002	-3.737254569000847	-2.973801481695066	9.161364328856228	0.1598959715133017	0	0	0	0.6596417394847019	0.6183017616894192	15.4385212254332	7.460861284147101	-4.622326052636721	-10.55359972643388	3.931241453340484	126.2845646213522	0	0	6.95186295916592	-1.799202857550404	-13.71115479024101	5.366399156827459	114.0741112891113	0	0
0.22	-0.3834271882686335	0.5159036344102363	36.74095088680151	0	0.9399999999999999	0	8.626220930677432	-3.756362050246479	-2.987031452057104	9.207378213800421	0.1606990653072118	0	0	0	8.626220930677432	-3.756362050246479	-2.987031452057104	9.207378213800421	0.1606990653072118	0	0	0	0.6481528567245853	0.6194027414856704	15.4298605040994	7.464320546871601	-4.625609964529926	-10.54019241915258	3.879572579729694	126.2419679551772	0	0	6.952247876555439	-1.788609246425925	-13.72567037733475	5.376416861400615	114.0402836760923	0	0
0.24	-0.3822053574576446	0.5146442022779867	36.90456840537536	0	0.9399999999999999	0	9.426873375568627	-4.057351986562852	-3.246336761426891	10.00314743097199	0.1745878582328734	0	0	0	9.426873375568627	-4.057351986562852	-3.246336761426891	10.00314743097199	0.1745878582328734	0	0	0	0.6361504278777653	0.6254276027320502	15.24078871521291	7.454643689257662	-4.639392466204646	-10.52741547553995	3.784757066176937	126.2464873195849	0	0	6.95218131476109	-1.7903833252323	-13.73954595075207	5.335848083498399	113.9910169944504	0	0
0.26	-0.3826762396390545	0.5121254151525075	37.08239956875972	0	0.9399999999999999	0	10.25731108838211	-4.361698808807882	-3.511522407307043	10.83705997510383	0.1891423778016566	0	0	0	10.25731108838211	-4.361698808807882	-3.511522407307043	10.83705997510383	0.1891423778016566	0	0	0	0.6227710420076638	0.6307103033826658	15.05615046953548	7.490540125055653	-4.646018270785557	-10.52631021989182	3.711083857164304	126.2526432248635	0	0	6.932476575254323	-1.789660885762118	-13.74013376945129	5.285405746339578	113.9926343786179	0	0
0.28	-0.3870212568418682	0.5154838850447493	37.11138077987625	0	0.9399999999999999	0	10.41970822273717	-4.416472070544633	-3.562284547399439	10.99094658180972	0.191828205763396	0	0	0	10.41970822273717	-4.416472070544633	-3.562284547399439	10.99094658180972	0.191828205763396	0	0	0	0.6191286134552692	0.6369123325747148	15.01585768800847	7.451312228018453	-4.639020699869992	-10.51358539928589	3.705915290060236	126.1637978369363	0	0	6.923710375496835	-1.782282223816206	-13.72850303264341	5.298582485981805	113.9259251513392	0	0
0.3	-0.3865327546008352	0.5183652459595504	37.13126446053288	0	0.9399999999999999	0	10.5896747485159	-4.474123885882255	-3.615408124960076	11.15369408844323	0.1946686856035619	0	0	0	10.5896747485159	-4.474123885882255	-3.615408124960076	11.15369408844323	0.1946686856035619	0	0	0	0.6188888303749371	0.6393674979164831	14.97997996629733	7.415511547142957	-4.64329740872425	-10.5492317673974	3.691910322091815	126.2365904204885	0	0	6.919158361311064	-1.817043546853973	-13.7503730347749	5.206042809075644	114.0512529692098	0	0
0.32	-0.4231345484941812	0.5057289242092806	37.14402928558539	0	0.9399999999999999	0	10.79730258488295	-4.545840436377832	-3.680380492823166	11.35752538533443	0.1982262128529236	0	0	0	10.79730258488295	-4.545840436377832	-3.680380492823166	11.35752538533443	0.1982262128529236	0	0	0	0.5792388514017897	0.6515208981830766	14.92666253009621	7.47278395267058	-4.662481513576625	-10.54920148835739	3.719891659632441	126.2710993243116	0	0	6.960827877933409	-1.79564434915673	-13.77073264476544	5.200673778857934	114.0949908159857	0	0
